<?xml version="1.0" encoding="utf8" standalone="no"?>
<svg viewBox="0 0 668.75781 490.6991" xmlns="http://www.w3.org/2000/svg" xmlns:xlink="http://www.w3.org/1999/xlink">
<defs>
<filter height="2.82204" id="filter5762" width="1.91102" x="-.45551" y="-.91102">
<feGaussianBlur stdDeviation="3.35515"/>
</filter>
<filter height="3.19801" id="filter5776" width="2.099" x="-.5495" y="-1.099">
<feGaussianBlur stdDeviation="20.35296"/>
</filter>
<linearGradient id="linearGradient5483">
<stop offset="0" stop-color="#5f5e3a"/>
<stop offset="1" stop-color="#a19f62"/>
</linearGradient>
<linearGradient id="linearGradient5388">
<stop offset="0" stop-color="#414a07"/>
<stop offset=".66381" stop-color="#a0a483"/>
<stop offset="1" stop-color="#fff"/>
</linearGradient>
<linearGradient gradientUnits="userSpaceOnUse" id="linearGradient5263" x1="589.76459" x2="585.724" y1="878.59106" y2="862.3916">
<stop offset="0" stop-color="#414a07"/>
<stop offset=".54575" stop-color="#a0a483"/>
<stop offset="1" stop-color="#fff"/>
</linearGradient>
<linearGradient gradientUnits="userSpaceOnUse" id="linearGradient5353" x1="603.31866" x2="645.10358">
<stop offset="0" stop-color="#5db522"/>
<stop offset="1" stop-color="#3c6025"/>
</linearGradient>
<linearGradient gradientUnits="userSpaceOnUse" id="linearGradient5386" x1="593.56675" x2="569.71637" xlink:href="#linearGradient5388" y1="887.07066" y2="906.48458"/>
<linearGradient gradientUnits="userSpaceOnUse" id="linearGradient5424" x1="610.94132" x2="587.29464" xlink:href="#linearGradient5388" y1="891.86784" y2="911.28455"/>
<linearGradient gradientUnits="userSpaceOnUse" id="linearGradient5453" x1="635.74062" x2="611.89024" xlink:href="#linearGradient5388" y1="892.6265" y2="912.04042"/>
<linearGradient gradientUnits="userSpaceOnUse" id="linearGradient5457" x1="612.00204" x2="588.15165" xlink:href="#linearGradient5388" y1="877.97929" y2="897.39321"/>
<linearGradient gradientUnits="userSpaceOnUse" id="linearGradient5463" x1="629.42717" x2="605.57678" xlink:href="#linearGradient5388" y1="881.00975" y2="900.42367"/>
<linearGradient gradientUnits="userSpaceOnUse" id="linearGradient5469" x1="649.88276" x2="626.03237" xlink:href="#linearGradient5388" y1="883.28259" y2="902.69651"/>
<linearGradient gradientUnits="userSpaceOnUse" id="linearGradient5519" x1="561.02948" x2="498.49286" xlink:href="#linearGradient5483"/>
<radialGradient cx="591.85077" cy="860.85132" gradientTransform="matrix(1.71591e-5,4.01133,-3.57451,2.9303055e-5,3662.8316,-1483.3984)" gradientUnits="userSpaceOnUse" id="radialGradient3023" r="11.5717">
<stop offset="0" stop-color="#414a07"/>
<stop offset="1" stop-color="#fff"/>
</radialGradient>
<radialGradient cx="656.13898" cy="846.40991" gradientTransform="matrix(1,1.2401129e-7,-1.5016112e-7,1.21087,-41.9212,-170.11684)" gradientUnits="userSpaceOnUse" id="radialGradient5363" r="34.0266">
<stop offset="0" stop-color="#d8f18d"/>
<stop offset="1" stop-color="#558a32"/>
</radialGradient>
<radialGradient cx="626.14734" cy="911.20703" gradientTransform="matrix(3.17964,-.78147,.39141,1.59258,-1755.5158,-57.39225)" gradientUnits="userSpaceOnUse" id="radialGradient5365" r="34.0266">
<stop offset="0" stop-color="#438635"/>
<stop offset="1" stop-color="#f4e797"/>
</radialGradient>
<radialGradient cx="523.09344" cy="831.68903" gradientTransform="matrix(1.33408,5.1297233e-6,-4.797449e-6,1.34212,-174.7511,-284.60678)" gradientUnits="userSpaceOnUse" id="radialGradient5521" r="3.30361">
<stop offset="0" stop-color="#b3b17f"/>
<stop offset=".5" stop-color="#706f44"/>
<stop offset="1" stop-color="#5f5e3a"/>
</radialGradient>
<radialGradient cx="580.36981" cy="885.72528" gradientTransform="matrix(1.87493,.22417,-.48911,4.09082,-74.74628,-2867.9712)" gradientUnits="userSpaceOnUse" id="radialGradient5418" r="7.13577" xlink:href="#linearGradient5483"/>
<radialGradient cx="580.36981" cy="885.72528" gradientTransform="matrix(1.85891,.2242,-.48493,4.09141,-51.66383,-2863.7147)" gradientUnits="userSpaceOnUse" id="radialGradient5422" r="7.13577" xlink:href="#linearGradient5483"/>
<radialGradient cx="580.36981" cy="885.72528" gradientTransform="matrix(1.87493,.22417,-.48911,4.09082,-32.57241,-2862.4154)" gradientUnits="userSpaceOnUse" id="radialGradient5451" r="7.13577" xlink:href="#linearGradient5483"/>
<radialGradient cx="580.36981" cy="885.72528" gradientTransform="matrix(1.87493,.22417,-.48911,4.09082,-56.311,-2877.0626)" gradientUnits="userSpaceOnUse" id="radialGradient5455" r="7.13577" xlink:href="#linearGradient5483"/>
<radialGradient cx="580.36981" cy="885.72528" gradientTransform="matrix(1.87493,.22417,-.48911,4.09082,-38.88587,-2874.0321)" gradientUnits="userSpaceOnUse" id="radialGradient5461" r="7.13577" xlink:href="#linearGradient5483"/>
<radialGradient cx="580.36981" cy="885.72528" gradientTransform="matrix(1.87493,.22417,-.48911,4.09082,-18.43028,-2871.7593)" gradientUnits="userSpaceOnUse" id="radialGradient5467" r="7.13577" xlink:href="#linearGradient5483"/>
</defs>
<path d="m510.63211,891.74792c0,12.27363-19.89947,22.22336-44.44672,22.22336s-44.44671-9.94973-44.44671-22.22336 19.89947-22.22335 44.44671-22.22335 44.44672,9.94973 44.44672,22.22335z" filter="url(#filter5776)" opacity=".88298" transform="matrix(3.58415,0,0,2.14697,-1336.49895,-1576.44328)"/>
<path d="m582.10043,903.74347c0,2.44078-3.95728,4.41942-8.83883,4.41942s-8.83884-1.97864-8.83884-4.41942 3.95728-4.41942 8.83884-4.41942 8.83883,1.97864 8.83883,4.41942z" filter="url(#filter5762)" opacity=".88298" transform="matrix(2.56644,0,0,2.22236,-1172.00625,-1703.19457)"/>
<path d="m582.10043,903.74347c0,2.44078-3.95728,4.41942-8.83883,4.41942s-8.83884-1.97864-8.83884-4.41942 3.95728-4.41942 8.83884-4.41942 8.83883,1.97864 8.83883,4.41942z" filter="url(#filter5762)" opacity=".88298" transform="matrix(2.56644,0,0,2.22236,-1108.02805,-1687.87587)"/>
<path d="m582.10043,903.74347c0,2.44078-3.95728,4.41942-8.83883,4.41942s-8.83884-1.97864-8.83884-4.41942 3.95728-4.41942 8.83884-4.41942 8.83883,1.97864 8.83883,4.41942z" filter="url(#filter5762)" opacity=".88298" transform="matrix(2.56644,0,0,2.22236,-1038.64322,-1684.27147)"/>
<path d="m582.10043,903.74347c0,2.44078-3.95728,4.41942-8.83883,4.41942s-8.83884-1.97864-8.83884-4.41942 3.95728-4.41942 8.83884-4.41942 8.83883,1.97864 8.83883,4.41942z" filter="url(#filter5762)" opacity=".88298" transform="matrix(2.56644,0,0,2.22236,-1157.58865,-1651.83187)"/>
<path d="m582.10043,903.74347c0,2.44078-3.95728,4.41942-8.83883,4.41942s-8.83884-1.97864-8.83884-4.41942 3.95728-4.41942 8.83884-4.41942 8.83883,1.97864 8.83883,4.41942z" filter="url(#filter5762)" opacity=".88298" transform="matrix(2.56644,0,0,2.22236,-1239.58885,-1667.60107)"/>
<path d="m582.10043,903.74347c0,2.44078-3.95728,4.41942-8.83883,4.41942s-8.83884-1.97864-8.83884-4.41942 3.95728-4.41942 8.83884-4.41942 8.83883,1.97864 8.83883,4.41942z" filter="url(#filter5762)" opacity=".88298" transform="matrix(2.56644,0,0,2.22236,-1060.26965,-1650.02957)"/>
<g transform="matrix(3.56818,0,0,3.56818,-1822.85775,-2875.34227)">
<g transform="translate(30.35714,-5.35714)">
<path d="m548.92857,880.57647c0,0-27.14285-8.57143-25-45.35714" fill="none" stroke="url(#linearGradient5519)" stroke-linecap="round" stroke-width="2.7"/>
<path d="m526.40563,835.19612c-1.35652,1.31905-3.4453,1.19951-4.66542-.267s-1.10954-3.72465.24698-5.0437 3.4453-1.19951 4.66542.267c.89717,1.07834 1.10201,2.63616.51837,3.94208" fill="url(#radialGradient5521)" transform="matrix(1.65945,0,0,1.59999,-346.53939,-500.77012)"/>
</g>
<g transform="matrix(.97154,.23689,-.23689,.97154,261.01989,-120.0723)">
<path d="m548.92857,880.57647c0,0-27.14285-8.57143-25-45.35714" fill="none" stroke="url(#linearGradient5519)" stroke-linecap="round" stroke-width="2.7"/>
<path d="m526.40563,835.19612c-1.35652,1.31905-3.4453,1.19951-4.66542-.267s-1.10954-3.72465.24698-5.0437 3.4453-1.19951 4.66542.267c.89717,1.07834 1.10201,2.63616.51837,3.94208" fill="url(#radialGradient5521)" transform="matrix(1.65945,0,0,1.59999,-346.53939,-500.77012)"/>
</g>
<path d="m635.1136,890.33082c.24457-1.9334-.65782-4.24625-.90777,4.07189-5.16214.0746-7.01704,3.28628-1.71028,3.69418s5.44399-.62597 3.21532-2.87326c.42127-9.58783-.84185-2.95941-.59727-4.89281z" fill="url(#radialGradient5467)" stroke="url(#linearGradient5469)" stroke-linecap="round" stroke-linejoin="round" stroke-width=".54179"/>
<path d="m597.23288,886.73215c.24457-1.9334-.65782-5.95088-.90777,2.36726-5.16214.0746-7.01704,3.28628-1.71028,3.69418s5.44399-.62597 3.21532-2.87326c.42127-9.58783-.84185-1.25478-.59727-3.18818z" fill="url(#radialGradient5455)" stroke="url(#linearGradient5457)" stroke-linecap="round" stroke-linejoin="round" stroke-width=".54179"/>
<path d="m614.72115,889.5732c.24457-1.9334-.72096-5.76147-.97091,2.55667-5.16214.0746-7.01704,3.28628-1.71028,3.69418s5.44399-.62597 3.21532-2.87326c.42127-9.58783-.77871-1.44419-.53413-3.37759z" fill="url(#radialGradient5461)" stroke="url(#linearGradient5463)" stroke-linecap="round" stroke-linejoin="round" stroke-width=".54179"/>
<path d="m576.0462,903.1631c.11133-1.66997 1.55536-2.93349 3.22533-2.82216s2.93349,1.55536 2.82216,3.22533c-.0258.38774-.12603.7669-.29509,1.1168" transform="matrix(.98214,.18816,-.18816,.98214,187.98781,-109.31627)"/>
<path d="m598.86833,864.95964c-5.49093,1.92804-14.05331,7.5066-16.63513,19.1856-5.64048-2.02842-5.83642-2.14215-7.94643-5.89286-.62984-1.11959 1.41651-10.91399 9.73214-14.01785 7.89386-2.94643 15.86541,1.04339 14.84942.72511z" fill="url(#radialGradient3023)" stroke="url(#linearGradient5263)" stroke-linecap="round" stroke-linejoin="round" stroke-width=".7"/>
<path d="m576.0462,903.1631c.11133-1.66997 1.55536-2.93349 3.22533-2.82216s2.93349,1.55536 2.82216,3.22533c-.0258.38774-.12603.7669-.29509,1.1168" transform="matrix(.9931,-.11729,.11729,.9931,-76.51114,62.60246)"/>
<path d="m576.0462,903.1631c.11133-1.66997 1.55536-2.93349 3.22533-2.82216s2.93349,1.55536 2.82216,3.22533c-.0258.38774-.12603.7669-.29509,1.1168" transform="matrix(.94844,-.31695,.31695,.94844,-206.35616,219.71909)"/>
<path d="m610.25,862.15625c-12.671-.20538-26.33537,12.04427-27.84375,22.59375 .42249.44287.96853.86821 1.5625,1.28125 .39619-1.07057 1.41669-1.8125 2.625-1.8125 1.55098,0 2.8125,1.23027 2.8125,2.78125 0,.54769-.19762,1.06798-.46875,1.5 3.50999,1.33434 7.97183,2.42396 12.8125,3.25 .21265-1.34023 1.34994-2.375 2.75-2.375 1.55098,0 2.8125,1.26152 2.8125,2.8125 0,.12885-.0145.25075-.0312.375 6.39696.78668 13.12241,1.11307 19.15625.96875-.0621-.23214-.125-.46701-.125-.71875 0-1.55098 1.26152-2.8125 2.8125-2.8125s2.8125,1.26152 2.8125,2.8125c0,.15132-.0395.29267-.0625.4375 7.60463-.63367 13.25081-2.22099 14.15625-4.9375-6.22847-14.87947-21.65583-24.53876-35.78125-26.15625z" fill="url(#radialGradient5363)" stroke="url(#radialGradient5365)" stroke-linecap="round" stroke-linejoin="round" stroke-width=".7"/>
<path d="m602.56868,863.47898c16.55643,1.56486 36.18014,12.34153 42.03491,26.12237" fill="none" stroke="url(#linearGradient5353)" stroke-linecap="round"/>
<path d="m587.51017,886.54275c.24457-1.9334-9.37039,3.3299-9.62034,11.64804-5.16214.0746-7.01704,3.28628-1.71028,3.69418s5.44399-.62597 3.21532-2.87326c.42127-9.58783 7.87072-10.53556 8.1153-12.46896z" fill="url(#radialGradient5418)" stroke="url(#linearGradient5386)" stroke-linecap="round" stroke-linejoin="round" stroke-width=".54179"/>
<path d="m604.87335,890.96108c-.13633-2.12308-5.24975,3.96173-5.49757,12.28107-5.11805.0746-6.95711,3.28675-1.69567,3.69471s5.3975-.62606 3.18786-2.87368c.41767-9.58921 4.1417-10.97901 4.00538-13.1021z" fill="url(#radialGradient5422)" stroke="url(#linearGradient5424)" stroke-linecap="round" stroke-linejoin="round" stroke-width=".53951"/>
<path d="m629.88877,891.69045c-1.10993-1.23352-6.09519,5.09167-3.89042,12.18245-5.16214.0746-7.01704,3.28628-1.71028,3.69418s5.31006-1.29561 3.08139-3.5429c-2.55341-9.92683 3.62924-11.1002 2.51931-12.33373z" fill="url(#radialGradient5451)" stroke="url(#linearGradient5453)" stroke-linecap="round" stroke-linejoin="round" stroke-width=".54179"/>
</g>
</svg>
